<html>
<head>
<meta charset="UTF-8">
<meta name="viewport" content="width=device-width, initial-scale=1.0"/>

<style>
.comment
{
    padding-left: 20px;
    margin-top: 4px;
    margin-right: 4px;
    margin-bottom: 4px;
    border: 2px #000 solid;
}
.submission
{
    border: 4px #00f solid;
    padding-left: 20px;
}
.hidden
{
    display: none;
}
</style>
</head>
<body><div class="submission" id="t3_67j2qe">
    <p class="userinfo">
        <a href="https://www.reddit.com/u/TheMrMcGibblets">TheMrMcGibblets</a>
        <span class="score"> | 16 points</span>
        <span class="timestamp"> | Apr 25 2017 19:59:33</span>
    </p>
    <strong>[MOVIE] The General 1998 DVDRIP [1.40GB]</strong>
    <p><p>Add mega</p>
<p>.nz/#!9vI2XbiS</p>
<p>!PwTj6rdLfs14tW3wqE9FzhXkv1JlQNVVlZfqpilRVBo</p>
<pre><code>Format                                   : Matroska
Format version                           : Version 4 / Version 2
File size                                : 1.40 GiB
Duration                                 : 1h 58mn
Overall bit rate                         : 1 685 Kbps
Encoded date                             : UTC 2013-11-30 16:41:41
Writing application                      : mkvmerge v6.4.1 ('Omega Point') built on Sep 16 2013 22:05:10
Writing library                          : libebml v1.3.0 + libmatroska v1.4.1

Video
ID                                       : 1
Format                                   : AVC
Format/Info                              : Advanced Video Codec
Format profile                           : High@L3.0
Format settings, CABAC                   : Yes
Format settings, ReFrames                : 4 frames
Codec ID                                 : V_MPEG4/ISO/AVC
Duration                                 : 1h 58mn
Bit rate                                 : 1 225 Kbps
Width                                    : 720 pixels
Height                                   : 576 pixels
Display aspect ratio                     : 16:9
Frame rate mode                          : Constant
Frame rate                               : 25.000 fps
Standard                                 : PAL
Color space                              : YUV
Chroma subsampling                       : 4:2:0
Bit depth                                : 8 bits
Scan type                                : Progressive
Bits/(Pixel*Frame)                       : 0.118
Stream size                              : 1 021 MiB (71%)
Writing library                          : x264 core 120 r2120 0c7dab9
Encoding settings                        : cabac=1 / ref=3 / deblock=1:0:0 / analyse=0x3:0x113 / me=hex / subme=7 / psy=1 / psy_rd=1.00:0.00 / mixed_ref=1 / me_range=16 / chroma_me=1 / trellis=1 / 8x8dct=1 / cqm=0 / deadzone=21,11 / fast_pskip=1 / chroma_qp_offset=-2 / threads=3 / sliced_threads=0 / nr=0 / decimate=1 / interlaced=0 / bluray_compat=0 / constrained_intra=0 / bframes=3 / b_pyramid=2 / b_adapt=1 / b_bias=0 / direct=1 / weightb=1 / open_gop=0 / weightp=2 / keyint=250 / keyint_min=25 / scenecut=40 / intra_refresh=0 / rc_lookahead=40 / rc=2pass / mbtree=1 / bitrate=1225 / ratetol=1.0 / qcomp=0.60 / qpmin=0 / qpmax=51 / qpstep=4 / cplxblur=20.0 / qblur=0.5 / ip_ratio=1.40 / aq=1:1.00
Default                                  : Yes
Forced                                   : No
Matrix coefficients                      : SMPTE 240M

Audio
ID                                       : 2
Format                                   : AC-3
Format/Info                              : Audio Coding 3
Mode extension                           : CM (complete main)
Format settings, Endianness              : Big
Codec ID                                 : A_AC3
Duration                                 : 1h 58mn
Bit rate mode                            : Constant
Bit rate                                 : 448 Kbps
Channel(s)                               : 6 channels
Channel positions                        : Front: L C R, Side: L R, LFE
Sampling rate                            : 48.0 KHz
Bit depth                                : 16 bits
Compression mode                         : Lossy
Delay relative to video                  : 610ms
Stream size                              : 380 MiB (27%)
Language                                 : English
Default                                  : Yes
Forced                                   : No

This was the highest quality version I could track down.
</code></pre></p>
    <p class="toolbar">
        <a href="https://www.reddit.com/r/megalinks/comments/67j2qe">permalink</a>
    </p>
</div>
<div class="comment" id="t1_dgqrsp0">
    <p class="userinfo">
        <a
        class="toggle_hide_button"
        href="javascript:void(0)"
        onclick="toggle_collapse(this.parentElement.parentElement)">[-]
        </a>
        <a href="https://www.reddit.com/u/boltrop">boltrop</a>
        <span class="score"> | 2 points</span>
        <span class="timestamp"> | Apr 25 2017 20:02:07</span>
    </p>
    <div class="collapsible">
        <h3><a href="https://images-na.ssl-images-amazon.com/images/M/MV5BMTkwOTE0NTA0Nl5BMl5BanBnXkFtZTcwNTc1MjgxMQ@@._V1_.jpg">The General</a> (1998)</h3>
<p><strong>Genre</strong>: Biography, Crime, Drama, Thriller</p>
<p><strong>Rating</strong>:  7.3 (6941 votes)</p>
<p><strong>Certification</strong>: R</p>
<p><strong>Runtime</strong>: 124 min</p>
<hr>
<blockquote>
<p><strong>Director(s)</strong>: <a href="https://www.imdb.com/name/nm0000958/">John Boorman</a></p>
<p><strong>Writer(s)</strong>: <a href="https://www.imdb.com/name/nm0000958/">John Boorman</a>, <a href="https://www.imdb.com/name/nm0931442/">Paul Williams</a></p>
<p><strong>Cast</strong>: <a href="https://www.imdb.com/name/nm0322407/">Brendan Gleeson</a>, <a href="https://www.imdb.com/name/nm0001160/">Adrian Dunbar</a>, <a href="https://www.imdb.com/name/nm0569336/">Sean McGinley</a>, <a href="https://www.imdb.com/name/nm0448204/">Maria Doyle Kennedy</a></p>
<p><strong>Plot</strong>: The real-life story of Dublin folk hero and criminal Martin Cahill, who pulled off two daring robberies in Ireland with his team, but attracted unwanted attention from the police, the IRA, the UVF and members of his own team.</p>
</blockquote>
<hr>
<p>^This ^summary ^is ^taken ^from <a href="https://www.imdb.com/title/tt0120706/">^imdb.com</a> ^| ^For ^feedback ^or ^suggestions ^contact <a href="http://www.reddit.com/message/compose/?to=indigo6alpha">^/u/indigo6alpha</a></p>
        <p class="toolbar">
            <a href="https://www.reddit.com/r/megalinks/comments/67j2qe/_/dgqrsp0">permalink</a>
        </p>
        
    </div>
</div>

<div class="comment" id="t1_dgr10rx">
    <p class="userinfo">
        <a
        class="toggle_hide_button"
        href="javascript:void(0)"
        onclick="toggle_collapse(this.parentElement.parentElement)">[-]
        </a>
        <a href="https://www.reddit.com/u/TJHookerWithAPenis">TJHookerWithAPenis</a>
        <span class="score"> | 2 points</span>
        <span class="timestamp"> | Apr 25 2017 23:01:20</span>
    </p>
    <div class="collapsible">
        <p>Hell yeah, thanks bro!</p>
        <p class="toolbar">
            <a href="https://www.reddit.com/r/megalinks/comments/67j2qe/_/dgr10rx">permalink</a>
        </p>
        
    </div>
</div>

<div class="comment" id="t1_dgqrulh">
    <p class="userinfo">
        <a
        class="toggle_hide_button"
        href="javascript:void(0)"
        onclick="toggle_collapse(this.parentElement.parentElement)">[-]
        </a>
        <a href="https://www.reddit.com/u/SubZorro">SubZorro</a>
        <span class="score"> | 1 points</span>
        <span class="timestamp"> | Apr 25 2017 20:03:04</span>
    </p>
    <div class="collapsible">
        <h5>Subtitles for this movie:</h5>
<hr>
<blockquote>
<ul>
<li>
<p><strong>The General (1998)_x264_BaDTaStE-eng(1)</strong> - <code>1 CD</code> - <a href="http://dl.opensubtitles.org/en/download/vrf-64b5695f/sub/5701763">Download Subtitle</a></p>
</li>
<li>
<p><strong>The.General.1998.Theatrical.Version.DVDRip.XviD-EXViD</strong> - <code>2 CD</code> - <a href="http://dl.opensubtitles.org/en/download/vrf-9a1ddd6c/sub/4242135">Download Subtitle</a></p>
</li>
<li>
<p><strong>The General (1998)</strong> - <code>1 CD</code> - <a href="http://dl.opensubtitles.org/en/download/vrf-cb7c46fb/sub/3385739">Download Subtitle</a></p>
</li>
</ul>
</blockquote>
<hr>
<p>^This ^list ^of ^subtitles ^are ^taken ^from <a href="http://www.opensubtitles.org">^opensubtitles.org</a> ^| ^For ^feedback ^or ^suggestions ^contact <a href="http://www.reddit.com/message/compose/?to=indigo6alpha">^/u/indigo6alpha</a></p>
        <p class="toolbar">
            <a href="https://www.reddit.com/r/megalinks/comments/67j2qe/_/dgqrulh">permalink</a>
        </p>
        
    </div>
</div>
</body>

<script>
function toggle_collapse(comment_div)
{
    var button = comment_div.getElementsByClassName("toggle_hide_button")[0];
    var collapsible = comment_div.getElementsByClassName("collapsible")[0];
    if (collapsible.classList.contains("hidden"))
    {
        collapsible.classList.remove("hidden");
        button.innerText = "[-]";
    }
    else
    {
        collapsible.classList.add("hidden");
        button.innerText = "[+]";
    }
}
</script>
</html>
